<svg width="228" height="42" viewBox="0 0 228 42" fill="none" xmlns="http://www.w3.org/2000/svg">
<path d="M22.6 10.5C24.58 10.5 26.36 10.8 27.94 11.4C29.52 12 30.77 12.89 31.69 14.07C32.63 15.23 33.1 16.65 33.1 18.33H26.77C26.77 17.47 26.39 16.78 25.63 16.26C24.87 15.72 23.95 15.45 22.87 15.45C21.31 15.45 20.13 15.87 19.33 16.71C18.53 17.53 18.13 18.7 18.13 20.22V22.14C18.13 23.66 18.53 24.84 19.33 25.68C20.13 26.5 21.31 26.91 22.87 26.91C23.95 26.91 24.87 26.66 25.63 26.16C26.39 25.64 26.77 24.98 26.77 24.18H22.09V19.98H33.1V31.5H29.68L29.02 29.46C27.14 31.06 24.68 31.86 21.64 31.86C18.22 31.86 15.65 30.97 13.93 29.19C12.21 27.39 11.35 24.72 11.35 21.18C11.35 17.68 12.32 15.03 14.26 13.23C16.22 11.41 19 10.5 22.6 10.5ZM46.5702 10.5C50.1302 10.5 52.8802 11.41 54.8202 13.23C56.7602 15.05 57.7302 17.7 57.7302 21.18C57.7302 24.66 56.7602 27.31 54.8202 29.13C52.8802 30.95 50.1302 31.86 46.5702 31.86C43.0102 31.86 40.2602 30.96 38.3202 29.16C36.4002 27.34 35.4402 24.68 35.4402 21.18C35.4402 17.68 36.4002 15.03 38.3202 13.23C40.2602 11.41 43.0102 10.5 46.5702 10.5ZM46.5702 15.45C45.1502 15.45 44.0702 15.88 43.3302 16.74C42.5902 17.6 42.2202 18.76 42.2202 20.22V22.14C42.2202 23.6 42.5902 24.76 43.3302 25.62C44.0702 26.48 45.1502 26.91 46.5702 26.91C47.9902 26.91 49.0702 26.48 49.8102 25.62C50.5702 24.76 50.9502 23.6 50.9502 22.14V20.22C50.9502 18.76 50.5702 17.6 49.8102 16.74C49.0702 15.88 47.9902 15.45 46.5702 15.45ZM79.9905 17.19C79.9905 18.45 79.6505 19.59 78.9705 20.61C78.2905 21.63 77.3005 22.38 76.0005 22.86L80.5905 31.5H73.1505L69.4905 23.97H67.0305V31.5H60.4005V10.86H73.0305C74.5105 10.86 75.7705 11.15 76.8105 11.73C77.8705 12.29 78.6605 13.06 79.1805 14.04C79.7205 15 79.9905 16.05 79.9905 17.19ZM73.2405 17.46C73.2405 16.92 73.0605 16.47 72.7005 16.11C72.3405 15.75 71.9005 15.57 71.3805 15.57H67.0305V19.38H71.3805C71.9005 19.38 72.3405 19.2 72.7005 18.84C73.0605 18.46 73.2405 18 73.2405 17.46ZM92.7027 10.5C94.6827 10.5 96.4627 10.8 98.0427 11.4C99.6227 12 100.873 12.89 101.793 14.07C102.733 15.23 103.203 16.65 103.203 18.33H96.8727C96.8727 17.47 96.4927 16.78 95.7327 16.26C94.9727 15.72 94.0527 15.45 92.9727 15.45C91.4127 15.45 90.2327 15.87 89.4327 16.71C88.6327 17.53 88.2327 18.7 88.2327 20.22V22.14C88.2327 23.66 88.6327 24.84 89.4327 25.68C90.2327 26.5 91.4127 26.91 92.9727 26.91C94.0527 26.91 94.9727 26.66 95.7327 26.16C96.4927 25.64 96.8727 24.98 96.8727 24.18H92.1927V19.98H103.203V31.5H99.7827L99.1227 29.46C97.2427 31.06 94.7827 31.86 91.7427 31.86C88.3227 31.86 85.7527 30.97 84.0327 29.19C82.3127 27.39 81.4527 24.72 81.4527 21.18C81.4527 17.68 82.4227 15.03 84.3627 13.23C86.3227 11.41 89.1027 10.5 92.7027 10.5ZM116.673 10.5C120.233 10.5 122.983 11.41 124.923 13.23C126.863 15.05 127.833 17.7 127.833 21.18C127.833 24.66 126.863 27.31 124.923 29.13C122.983 30.95 120.233 31.86 116.673 31.86C113.113 31.86 110.363 30.96 108.423 29.16C106.503 27.34 105.543 24.68 105.543 21.18C105.543 17.68 106.503 15.03 108.423 13.23C110.363 11.41 113.113 10.5 116.673 10.5ZM116.673 15.45C115.253 15.45 114.173 15.88 113.433 16.74C112.693 17.6 112.323 18.76 112.323 20.22V22.14C112.323 23.6 112.693 24.76 113.433 25.62C114.173 26.48 115.253 26.91 116.673 26.91C118.093 26.91 119.173 26.48 119.913 25.62C120.673 24.76 121.053 23.6 121.053 22.14V20.22C121.053 18.76 120.673 17.6 119.913 16.74C119.173 15.88 118.093 15.45 116.673 15.45Z" fill="#0D78AC"/>
<path d="M141.592 16.14V31.5H134.962V16.14H128.182V10.86H148.342V16.14H141.592ZM162.242 31.5L161.372 28.59H154.142L153.272 31.5H146.492L154.022 10.86H161.732L169.262 31.5H162.242ZM155.522 23.97H159.992L157.832 16.62H157.712L155.522 23.97ZM180.714 10.5C182.694 10.5 184.474 10.8 186.054 11.4C187.634 12 188.884 12.89 189.804 14.07C190.744 15.23 191.214 16.65 191.214 18.33H184.884C184.884 17.47 184.504 16.78 183.744 16.26C182.984 15.72 182.064 15.45 180.984 15.45C179.424 15.45 178.244 15.87 177.444 16.71C176.644 17.53 176.244 18.7 176.244 20.22V22.14C176.244 23.66 176.644 24.84 177.444 25.68C178.244 26.5 179.424 26.91 180.984 26.91C182.064 26.91 182.984 26.66 183.744 26.16C184.504 25.64 184.884 24.98 184.884 24.18H180.204V19.98H191.214V31.5H187.794L187.134 29.46C185.254 31.06 182.794 31.86 179.754 31.86C176.334 31.86 173.764 30.97 172.044 29.19C170.324 27.39 169.464 24.72 169.464 21.18C169.464 17.68 170.434 15.03 172.374 13.23C174.334 11.41 177.114 10.5 180.714 10.5ZM204.684 10.5C208.244 10.5 210.994 11.41 212.934 13.23C214.874 15.05 215.844 17.7 215.844 21.18C215.844 24.66 214.874 27.31 212.934 29.13C210.994 30.95 208.244 31.86 204.684 31.86C201.124 31.86 198.374 30.96 196.434 29.16C194.514 27.34 193.554 24.68 193.554 21.18C193.554 17.68 194.514 15.03 196.434 13.23C198.374 11.41 201.124 10.5 204.684 10.5ZM204.684 15.45C203.264 15.45 202.184 15.88 201.444 16.74C200.704 17.6 200.334 18.76 200.334 20.22V22.14C200.334 23.6 200.704 24.76 201.444 25.62C202.184 26.48 203.264 26.91 204.684 26.91C206.104 26.91 207.184 26.48 207.924 25.62C208.684 24.76 209.064 23.6 209.064 22.14V20.22C209.064 18.76 208.684 17.6 207.924 16.74C207.184 15.88 206.104 15.45 204.684 15.45Z" fill="#1AA5A8"/>
</svg>
