<svg width="18" height="18" viewBox="0 0 18 18" fill="none" xmlns="http://www.w3.org/2000/svg">
<path fill-rule="evenodd" clip-rule="evenodd" d="M3 1.5C2.17157 1.5 1.5 2.17157 1.5 3V6C1.5 6.82843 2.17157 7.5 3 7.5H6C6.82843 7.5 7.5 6.82843 7.5 6V3C7.5 2.17157 6.82843 1.5 6 1.5H3ZM13.5 7.5C15.1569 7.5 16.5 6.15685 16.5 4.5C16.5 2.84315 15.1569 1.5 13.5 1.5C11.8431 1.5 10.5 2.84315 10.5 4.5C10.5 6.15685 11.8431 7.5 13.5 7.5ZM7.5 13.5C7.5 15.1569 6.15685 16.5 4.5 16.5C2.84315 16.5 1.5 15.1569 1.5 13.5C1.5 11.8431 2.84315 10.5 4.5 10.5C6.15685 10.5 7.5 11.8431 7.5 13.5ZM12 10.5C11.1716 10.5 10.5 11.1716 10.5 12V15C10.5 15.8284 11.1716 16.5 12 16.5H15C15.8284 16.5 16.5 15.8284 16.5 15V12C16.5 11.1716 15.8284 10.5 15 10.5H12Z" fill="white"/>
</svg>
