<svg width="51" height="50" viewBox="0 0 51 50" fill="none" xmlns="http://www.w3.org/2000/svg">
<path d="M26.9142 11.0962C28.5478 11.1004 29.3769 11.1087 30.0927 11.1282L30.3744 11.1379C30.6997 11.149 31.0206 11.1629 31.4083 11.1796C32.9532 11.2491 34.0074 11.4827 34.9323 11.8261C35.8907 12.1793 36.698 12.6576 37.5054 13.4292C38.244 14.124 38.8154 14.9648 39.1795 15.8929C39.5382 16.7786 39.7821 17.788 39.8547 19.2687C39.8722 19.6385 39.8867 19.9458 39.8983 20.2586L39.907 20.5284C39.9288 21.2124 39.9375 22.0063 39.9404 23.5704L39.9419 24.6076V26.429C39.9454 27.4431 39.9343 28.4573 39.9085 29.4711L39.8998 29.7408C39.8881 30.0537 39.8736 30.3609 39.8562 30.7308C39.7836 32.2115 39.5367 33.2195 39.1795 34.1065C38.8154 35.0346 38.244 35.8754 37.5054 36.5703C36.7797 37.2775 35.9016 37.8246 34.9323 38.1733C34.0074 38.5167 32.9532 38.7503 31.4083 38.8198L30.3744 38.8616L30.0927 38.8699C29.3769 38.8894 28.5478 38.8991 26.9142 38.9019L25.831 38.9033H23.9303C22.8707 38.9068 21.8111 38.8962 20.7518 38.8713L20.4701 38.8629C20.1254 38.8504 19.7808 38.8361 19.4363 38.8198C17.8913 38.7503 16.8371 38.5167 15.9107 38.1733C14.942 37.8244 14.0644 37.2773 13.3392 36.5703C12.6 35.8756 12.0282 35.0348 11.6635 34.1065C11.3049 33.2209 11.0609 32.2115 10.9883 30.7308L10.9448 29.7408L10.9375 29.4711C10.9108 28.4573 10.8986 27.4432 10.9012 26.429V23.5704C10.8972 22.5563 10.9078 21.5422 10.9332 20.5284L10.9433 20.2586C10.9549 19.9458 10.9695 19.6385 10.9869 19.2687C11.0595 17.788 11.3034 16.78 11.6621 15.8929C12.0275 14.9644 12.6004 14.1236 13.3406 13.4292C14.0654 12.7223 14.9425 12.1752 15.9107 11.8261C16.8371 11.4827 17.8898 11.2491 19.4363 11.1796C19.8225 11.1629 20.1449 11.149 20.4701 11.1379L20.7518 11.1296C21.8106 11.1049 22.8697 11.0942 23.9288 11.0976L26.9142 11.0962ZM25.4215 18.048C23.496 18.048 21.6494 18.7804 20.2878 20.0841C18.9263 21.3878 18.1614 23.156 18.1614 24.9997C18.1614 26.8435 18.9263 28.6117 20.2878 29.9154C21.6494 31.2191 23.496 31.9515 25.4215 31.9515C27.3471 31.9515 29.1937 31.2191 30.5552 29.9154C31.9168 28.6117 32.6817 26.8435 32.6817 24.9997C32.6817 23.156 31.9168 21.3878 30.5552 20.0841C29.1937 18.7804 27.3471 18.048 25.4215 18.048ZM25.4215 20.8287C25.9936 20.8286 26.5601 20.9364 27.0886 21.1459C27.6171 21.3554 28.0974 21.6626 28.502 22.0499C28.9065 22.4371 29.2275 22.8969 29.4465 23.4029C29.6655 23.9089 29.7783 24.4513 29.7784 24.999C29.7785 25.5468 29.6659 26.0892 29.4471 26.5953C29.2282 27.1014 28.9074 27.5612 28.503 27.9486C28.0986 28.336 27.6184 28.6433 27.0899 28.853C26.5615 29.0627 25.995 29.1707 25.423 29.1708C24.2677 29.1708 23.1597 28.7313 22.3428 27.9491C21.5258 27.1669 21.0669 26.106 21.0669 24.9997C21.0669 23.8935 21.5258 22.8326 22.3428 22.0503C23.1597 21.2681 24.2677 20.8287 25.423 20.8287M33.0462 15.9624C32.5648 15.9624 32.1031 16.1455 31.7627 16.4715C31.4223 16.7974 31.2311 17.2394 31.2311 17.7004C31.2311 18.1613 31.4223 18.6034 31.7627 18.9293C32.1031 19.2552 32.5648 19.4383 33.0462 19.4383C33.5275 19.4383 33.9892 19.2552 34.3296 18.9293C34.67 18.6034 34.8612 18.1613 34.8612 17.7004C34.8612 17.2394 34.67 16.7974 34.3296 16.4715C33.9892 16.1455 33.5275 15.9624 33.0462 15.9624Z" fill="black"/>
</svg>
