<svg width="50" height="50" viewBox="0 0 50 50" fill="none" xmlns="http://www.w3.org/2000/svg">
<path d="M24.9995 9.31543C33.6633 9.31543 40.6855 15.271 40.6855 22.6196C40.6855 29.9666 33.6633 35.9221 25.0009 35.9221C24.1385 35.9205 23.2769 35.8608 22.4212 35.7434L15.8367 40.4295C15.0883 40.8602 14.8239 40.8131 15.1316 39.7582L16.4641 33.7798C12.162 31.4067 9.31641 27.2943 9.31641 22.6196C9.31641 15.2726 16.3371 9.31543 25.0009 9.31543M33.8261 22.4164L36.022 20.1018C36.1487 19.9586 36.2193 19.7675 36.2191 19.5687C36.2189 19.37 36.1478 19.179 36.0208 19.0362C35.8938 18.8933 35.7207 18.8097 35.5382 18.8029C35.3556 18.7961 35.1777 18.8667 35.042 18.9998L32.1621 22.0328V19.5264C32.1621 19.3229 32.0878 19.1278 31.9556 18.9839C31.8233 18.84 31.644 18.7592 31.457 18.7592C31.27 18.7592 31.0907 18.84 30.9585 18.9839C30.8262 19.1278 30.7519 19.3229 30.7519 19.5264V23.6826C30.7271 23.8014 30.7271 23.9247 30.7519 24.0435V26.3825C30.7519 26.586 30.8262 26.7811 30.9585 26.925C31.0907 27.0689 31.27 27.1497 31.457 27.1497C31.644 27.1497 31.8233 27.0689 31.9556 26.925C32.0878 26.7811 32.1621 26.586 32.1621 26.3825V24.167L32.7999 23.4957L34.933 26.8002C34.9863 26.8827 35.0539 26.953 35.1321 27.007C35.2104 27.0611 35.2976 27.0978 35.3889 27.1152C35.4801 27.1325 35.5737 27.1302 35.6641 27.1082C35.7545 27.0862 35.8401 27.0451 35.9159 26.9871C35.9917 26.9292 36.0563 26.8556 36.106 26.7704C36.1556 26.6853 36.1894 26.5904 36.2054 26.4911C36.2213 26.3918 36.2191 26.29 36.1989 26.1916C36.1787 26.0932 36.1409 26.0001 36.0877 25.9176L33.8261 22.4164ZM29.4076 25.5438H27.2267V19.5508C27.2183 19.3536 27.1405 19.1676 27.0093 19.0313C26.8781 18.8949 26.7037 18.8189 26.5223 18.8189C26.341 18.8189 26.1666 18.8949 26.0354 19.0313C25.9042 19.1676 25.8264 19.3536 25.818 19.5508V26.311C25.818 26.7336 26.1317 27.0782 26.5216 27.0782H29.4076C29.5946 27.0782 29.7739 26.9973 29.9061 26.8535C30.0383 26.7096 30.1126 26.5144 30.1126 26.311C30.1126 26.1075 30.0383 25.9123 29.9061 25.7685C29.7739 25.6246 29.5946 25.5438 29.4076 25.5438ZM20.6586 23.7704L21.6982 20.9942L22.6513 23.7688L20.6586 23.7704ZM24.4273 24.562L24.4303 24.536C24.4298 24.3427 24.362 24.1569 24.2406 24.0158L22.6781 19.4646C22.6126 19.2478 22.4879 19.0578 22.3205 18.9201C22.1532 18.7824 21.9512 18.7036 21.7416 18.6942C21.5306 18.6941 21.3245 18.7634 21.1504 18.8931C20.9763 19.0228 20.8424 19.2067 20.7661 19.4207L18.2835 26.0444C18.2128 26.2328 18.2137 26.444 18.2861 26.6316C18.3586 26.8193 18.4965 26.9679 18.6696 27.0448C18.8427 27.1218 19.0369 27.1208 19.2093 27.042C19.3817 26.9632 19.5183 26.8131 19.589 26.6247L20.085 25.3032H23.1771L23.6222 26.6035C23.6526 26.7007 23.7006 26.7903 23.7633 26.867C23.8261 26.9436 23.9023 27.0058 23.9876 27.0498C24.0728 27.0938 24.1653 27.1187 24.2596 27.1231C24.3538 27.1275 24.4479 27.1113 24.5363 27.0754C24.6247 27.0395 24.7056 26.9846 24.7741 26.9141C24.8427 26.8436 24.8975 26.7588 24.9354 26.6648C24.9733 26.5707 24.9935 26.4694 24.9947 26.3668C24.996 26.2641 24.9783 26.1622 24.9427 26.0671L24.4273 24.562ZM19.4636 19.5589C19.464 19.4582 19.446 19.3584 19.4108 19.2652C19.3756 19.172 19.3239 19.0873 19.2585 19.016C19.1931 18.9447 19.1154 18.8882 19.0298 18.8497C18.9443 18.8112 18.8526 18.7915 18.76 18.7917H13.9127C13.7257 18.7917 13.5464 18.8725 13.4142 19.0164C13.2819 19.1603 13.2077 19.3554 13.2077 19.5589C13.2077 19.7624 13.2819 19.9575 13.4142 20.1014C13.5464 20.2453 13.7257 20.3261 13.9127 20.3261H15.6455V26.3987C15.6455 26.6022 15.7198 26.7974 15.852 26.9412C15.9842 27.0851 16.1636 27.1659 16.3506 27.1659C16.5375 27.1659 16.7169 27.0851 16.8491 26.9412C16.9813 26.7974 17.0556 26.6022 17.0556 26.3987V20.3261H18.7585C18.8512 20.3265 18.9431 20.307 19.0288 20.2686C19.1145 20.2302 19.1924 20.1737 19.2579 20.1024C19.3235 20.031 19.3754 19.9463 19.4107 19.853C19.446 19.7597 19.464 19.6598 19.4636 19.5589Z" fill="black"/>
</svg>
