<svg width="205" height="22" viewBox="0 0 205 22" fill="none" xmlns="http://www.w3.org/2000/svg">
<path d="M11.6 -1.43051e-06C13.58 -1.43051e-06 15.36 0.299999 16.94 0.899999C18.52 1.5 19.77 2.39 20.69 3.57C21.63 4.73 22.1 6.15 22.1 7.83H15.77C15.77 6.97 15.39 6.28 14.63 5.76C13.87 5.22 12.95 4.95 11.87 4.95C10.31 4.95 9.13 5.37 8.33 6.21C7.53 7.03 7.13 8.2 7.13 9.72V11.64C7.13 13.16 7.53 14.34 8.33 15.18C9.13 16 10.31 16.41 11.87 16.41C12.95 16.41 13.87 16.16 14.63 15.66C15.39 15.14 15.77 14.48 15.77 13.68H11.09V9.48H22.1V21H18.68L18.02 18.96C16.14 20.56 13.68 21.36 10.64 21.36C7.22 21.36 4.65 20.47 2.93 18.69C1.21 16.89 0.35 14.22 0.35 10.68C0.35 7.18 1.32 4.53 3.26 2.73C5.22 0.909999 8 -1.43051e-06 11.6 -1.43051e-06ZM35.5702 -1.43051e-06C39.1302 -1.43051e-06 41.8802 0.909999 43.8202 2.73C45.7602 4.55 46.7302 7.2 46.7302 10.68C46.7302 14.16 45.7602 16.81 43.8202 18.63C41.8802 20.45 39.1302 21.36 35.5702 21.36C32.0102 21.36 29.2602 20.46 27.3202 18.66C25.4002 16.84 24.4402 14.18 24.4402 10.68C24.4402 7.18 25.4002 4.53 27.3202 2.73C29.2602 0.909999 32.0102 -1.43051e-06 35.5702 -1.43051e-06ZM35.5702 4.95C34.1502 4.95 33.0702 5.38 32.3302 6.24C31.5902 7.1 31.2202 8.26 31.2202 9.72V11.64C31.2202 13.1 31.5902 14.26 32.3302 15.12C33.0702 15.98 34.1502 16.41 35.5702 16.41C36.9902 16.41 38.0702 15.98 38.8102 15.12C39.5702 14.26 39.9502 13.1 39.9502 11.64V9.72C39.9502 8.26 39.5702 7.1 38.8102 6.24C38.0702 5.38 36.9902 4.95 35.5702 4.95ZM68.9905 6.69C68.9905 7.95 68.6505 9.09 67.9705 10.11C67.2905 11.13 66.3005 11.88 65.0005 12.36L69.5905 21H62.1505L58.4905 13.47H56.0305V21H49.4005V0.359999H62.0305C63.5105 0.359999 64.7705 0.649999 65.8105 1.23C66.8705 1.79 67.6605 2.56 68.1805 3.54C68.7205 4.5 68.9905 5.55 68.9905 6.69ZM62.2405 6.96C62.2405 6.42 62.0605 5.97 61.7005 5.61C61.3405 5.25 60.9005 5.07 60.3805 5.07H56.0305V8.88H60.3805C60.9005 8.88 61.3405 8.7 61.7005 8.34C62.0605 7.96 62.2405 7.5 62.2405 6.96ZM81.7027 -1.43051e-06C83.6827 -1.43051e-06 85.4627 0.299999 87.0427 0.899999C88.6227 1.5 89.8727 2.39 90.7927 3.57C91.7327 4.73 92.2027 6.15 92.2027 7.83H85.8727C85.8727 6.97 85.4927 6.28 84.7327 5.76C83.9727 5.22 83.0527 4.95 81.9727 4.95C80.4127 4.95 79.2327 5.37 78.4327 6.21C77.6327 7.03 77.2327 8.2 77.2327 9.72V11.64C77.2327 13.16 77.6327 14.34 78.4327 15.18C79.2327 16 80.4127 16.41 81.9727 16.41C83.0527 16.41 83.9727 16.16 84.7327 15.66C85.4927 15.14 85.8727 14.48 85.8727 13.68H81.1927V9.48H92.2027V21H88.7827L88.1227 18.96C86.2427 20.56 83.7827 21.36 80.7427 21.36C77.3227 21.36 74.7527 20.47 73.0327 18.69C71.3127 16.89 70.4527 14.22 70.4527 10.68C70.4527 7.18 71.4227 4.53 73.3627 2.73C75.3227 0.909999 78.1027 -1.43051e-06 81.7027 -1.43051e-06ZM105.673 -1.43051e-06C109.233 -1.43051e-06 111.983 0.909999 113.923 2.73C115.863 4.55 116.833 7.2 116.833 10.68C116.833 14.16 115.863 16.81 113.923 18.63C111.983 20.45 109.233 21.36 105.673 21.36C102.113 21.36 99.363 20.46 97.423 18.66C95.503 16.84 94.543 14.18 94.543 10.68C94.543 7.18 95.503 4.53 97.423 2.73C99.363 0.909999 102.113 -1.43051e-06 105.673 -1.43051e-06ZM105.673 4.95C104.253 4.95 103.173 5.38 102.433 6.24C101.693 7.1 101.323 8.26 101.323 9.72V11.64C101.323 13.1 101.693 14.26 102.433 15.12C103.173 15.98 104.253 16.41 105.673 16.41C107.093 16.41 108.173 15.98 108.913 15.12C109.673 14.26 110.053 13.1 110.053 11.64V9.72C110.053 8.26 109.673 7.1 108.913 6.24C108.173 5.38 107.093 4.95 105.673 4.95Z" fill="#0D78AC"/>
<path d="M130.592 5.64V21H123.962V5.64H117.182V0.359999H137.342V5.64H130.592ZM151.242 21L150.372 18.09H143.142L142.272 21H135.492L143.022 0.359999H150.732L158.262 21H151.242ZM144.522 13.47H148.992L146.832 6.12H146.712L144.522 13.47ZM169.714 -1.43051e-06C171.694 -1.43051e-06 173.474 0.299999 175.054 0.899999C176.634 1.5 177.884 2.39 178.804 3.57C179.744 4.73 180.214 6.15 180.214 7.83H173.884C173.884 6.97 173.504 6.28 172.744 5.76C171.984 5.22 171.064 4.95 169.984 4.95C168.424 4.95 167.244 5.37 166.444 6.21C165.644 7.03 165.244 8.2 165.244 9.72V11.64C165.244 13.16 165.644 14.34 166.444 15.18C167.244 16 168.424 16.41 169.984 16.41C171.064 16.41 171.984 16.16 172.744 15.66C173.504 15.14 173.884 14.48 173.884 13.68H169.204V9.48H180.214V21H176.794L176.134 18.96C174.254 20.56 171.794 21.36 168.754 21.36C165.334 21.36 162.764 20.47 161.044 18.69C159.324 16.89 158.464 14.22 158.464 10.68C158.464 7.18 159.434 4.53 161.374 2.73C163.334 0.909999 166.114 -1.43051e-06 169.714 -1.43051e-06ZM193.684 -1.43051e-06C197.244 -1.43051e-06 199.994 0.909999 201.934 2.73C203.874 4.55 204.844 7.2 204.844 10.68C204.844 14.16 203.874 16.81 201.934 18.63C199.994 20.45 197.244 21.36 193.684 21.36C190.124 21.36 187.374 20.46 185.434 18.66C183.514 16.84 182.554 14.18 182.554 10.68C182.554 7.18 183.514 4.53 185.434 2.73C187.374 0.909999 190.124 -1.43051e-06 193.684 -1.43051e-06ZM193.684 4.95C192.264 4.95 191.184 5.38 190.444 6.24C189.704 7.1 189.334 8.26 189.334 9.72V11.64C189.334 13.1 189.704 14.26 190.444 15.12C191.184 15.98 192.264 16.41 193.684 16.41C195.104 16.41 196.184 15.98 196.924 15.12C197.684 14.26 198.064 13.1 198.064 11.64V9.72C198.064 8.26 197.684 7.1 196.924 6.24C196.184 5.38 195.104 4.95 193.684 4.95Z" fill="#1AA5A8"/>
</svg>
