<svg width="33" height="32" viewBox="0 0 33 32" fill="none" xmlns="http://www.w3.org/2000/svg">
<g clip-path="url(#clip0_3040_218)">
<path fill-rule="evenodd" clip-rule="evenodd" d="M16.5 5.33333C13.8421 5.33333 11.6875 7.42267 11.6875 10C11.6875 12.5773 13.8421 14.6667 16.5 14.6667C19.1579 14.6667 21.3125 12.5773 21.3125 10C21.3125 7.42267 19.1579 5.33333 16.5 5.33333ZM10.3125 10C10.3125 6.68629 13.0827 4 16.5 4C19.9173 4 22.6875 6.68629 22.6875 10C22.6875 13.3137 19.9173 16 16.5 16C13.0827 16 10.3125 13.3137 10.3125 10Z" fill="white"/>
<path fill-rule="evenodd" clip-rule="evenodd" d="M16.5 19.3333C10.8046 19.3333 6.1875 23.8105 6.1875 29.3333H4.8125C4.8125 23.0741 10.0452 18 16.5 18C22.9548 18 28.1875 23.0741 28.1875 29.3333H26.8125C26.8125 23.8105 22.1954 19.3333 16.5 19.3333Z" fill="white"/>
</g>
<defs>
<clipPath id="clip0_3040_218">
<rect width="33" height="32" fill="white"/>
</clipPath>
</defs>
</svg>
