<svg width="30" height="30" viewBox="0 0 30 30" fill="none" xmlns="http://www.w3.org/2000/svg">
<path fill-rule="evenodd" clip-rule="evenodd" d="M6.95472 13.1604C6.95472 9.73312 9.73312 6.95472 13.1604 6.95472C16.5878 6.95472 19.3661 9.73312 19.3661 13.1604C19.3661 16.5878 16.5878 19.3661 13.1604 19.3661C9.73312 19.3661 6.95472 16.5878 6.95472 13.1604ZM13.1604 6C9.20583 6 6 9.20583 6 13.1604C6 17.115 9.20583 20.3209 13.1604 20.3209C14.9659 20.3209 16.6154 19.6527 17.8749 18.55L18.3424 19.0175L23.3249 24L24 23.3248L19.0019 18.3268L18.55 17.8749C19.6527 16.6154 20.3209 14.9659 20.3209 13.1604C20.3209 9.20583 17.115 6 13.1604 6Z" fill="white"/>
</svg>
