<svg width="33" height="32" viewBox="0 0 33 32" fill="none" xmlns="http://www.w3.org/2000/svg">
<g clip-path="url(#clip0_3040_222)">
<path fill-rule="evenodd" clip-rule="evenodd" d="M27.5 10.6667H5.5V26.6667C5.5 27.4031 6.11561 28 6.875 28H26.125C26.8844 28 27.5 27.4031 27.5 26.6667V10.6667ZM4.125 9.33337V26.6667C4.125 28.1395 5.35622 29.3334 6.875 29.3334H26.125C27.6438 29.3334 28.875 28.1395 28.875 26.6667V9.33337H4.125Z" fill="white"/>
<path fill-rule="evenodd" clip-rule="evenodd" d="M16.5 5.33333C13.4624 5.33333 11 7.72115 11 10.6667V14.6667H9.625V10.6667C9.625 6.98477 12.703 4 16.5 4C20.2969 4 23.375 6.98477 23.375 10.6667V14.6667H22V10.6667C22 7.72115 19.5375 5.33333 16.5 5.33333Z" fill="white"/>
</g>
<defs>
<clipPath id="clip0_3040_222">
<rect width="33" height="32" fill="white"/>
</clipPath>
</defs>
</svg>
